# 3ds Max Wavefront OBJ Exporter v0.99 - (c)2007 guruware
# File Created: 12.11.2023 10:56:31

mtllib bumper.mtl

#
# object Bumper
#

v  -0.1583 -0.0400 0.4082
v  -0.2585 -0.0400 0.3533
v  -0.3411 -0.0400 0.2743
v  -0.4005 -0.0400 0.1767
v  -0.4326 -0.0400 0.0670
v  -0.4352 -0.0400 -0.0472
v  -0.4082 -0.0400 -0.1583
v  -0.3533 -0.0400 -0.2585
v  -0.2743 -0.0400 -0.3411
v  -0.1767 -0.0400 -0.4005
v  -0.0670 -0.0400 -0.4326
v  0.0472 -0.0400 -0.4352
v  0.1583 -0.0400 -0.4082
v  0.2585 -0.0400 -0.3533
v  0.3411 -0.0400 -0.2743
v  0.4005 -0.0400 -0.1767
v  0.4326 -0.0400 -0.0670
v  0.4352 -0.0400 0.0472
v  0.4082 -0.0400 0.1583
v  0.3533 -0.0400 0.2585
v  0.2743 -0.0400 0.3411
v  0.1767 -0.0400 0.4005
v  0.0670 -0.0400 0.4326
v  -0.0472 -0.0400 0.4352
v  0.2457 0.4830 0.5570
v  0.0932 0.4830 0.6016
v  0.3815 0.4830 0.4744
v  0.4913 0.4830 0.3595
v  0.5676 0.4830 0.2201
v  0.6052 0.4830 0.0657
v  0.6016 0.4830 -0.0932
v  0.5570 0.4830 -0.2457
v  0.4744 0.4830 -0.3815
v  0.3595 0.4830 -0.4913
v  0.2201 0.4830 -0.5676
v  0.0657 0.4830 -0.6052
v  -0.0932 0.4830 -0.6016
v  -0.2457 0.4830 -0.5570
v  -0.3815 0.4830 -0.4744
v  -0.4913 0.4830 -0.3595
v  -0.5676 0.4830 -0.2201
v  -0.6052 0.4830 -0.0657
v  -0.6016 0.4830 0.0932
v  -0.5570 0.4830 0.2457
v  -0.4744 0.4830 0.3815
v  -0.3595 0.4830 0.4913
v  -0.2201 0.4830 0.5676
v  -0.0657 0.4830 0.6052
v  0.3147 0.6146 0.7134
v  0.1194 0.6146 0.7706
v  0.4887 0.6146 0.6077
v  0.6293 0.6146 0.4605
v  0.7270 0.6146 0.2819
v  0.7752 0.6146 0.0841
v  0.7706 0.6146 -0.1194
v  0.7134 0.6146 -0.3147
v  0.6077 0.6146 -0.4887
v  0.4605 0.6146 -0.6293
v  0.2819 0.6146 -0.7270
v  0.0841 0.6146 -0.7752
v  -0.1194 0.6146 -0.7706
v  -0.3147 0.6146 -0.7134
v  -0.4887 0.6146 -0.6077
v  -0.6293 0.6146 -0.4605
v  -0.7270 0.6146 -0.2819
v  -0.7752 0.6146 -0.0841
v  -0.7706 0.6146 0.1194
v  -0.7134 0.6146 0.3147
v  -0.6077 0.6146 0.4887
v  -0.4605 0.6146 0.6293
v  -0.2819 0.6146 0.7270
v  -0.0841 0.6146 0.7752
v  0.3838 0.7841 0.8699
v  0.1455 0.7841 0.9396
v  0.5958 0.7841 0.7409
v  0.7673 0.7841 0.5615
v  0.8865 0.7841 0.3438
v  0.9452 0.7841 0.1026
v  0.9396 0.7841 -0.1455
v  0.8699 0.7841 -0.3838
v  0.7409 0.7841 -0.5958
v  0.5615 0.7841 -0.7673
v  0.3438 0.7841 -0.8865
v  0.1026 0.7841 -0.9452
v  -0.1455 0.7841 -0.9396
v  -0.3838 0.7841 -0.8699
v  -0.5958 0.7841 -0.7409
v  -0.7673 0.7841 -0.5615
v  -0.8865 0.7841 -0.3438
v  -0.9452 0.7841 -0.1026
v  -0.9396 0.7841 0.1455
v  -0.8699 0.7841 0.3838
v  -0.7409 0.7841 0.5958
v  -0.5615 0.7841 0.7673
v  -0.3438 0.7841 0.8865
v  -0.1026 0.7841 0.9452
v  0.4528 0.9579 1.0264
v  0.1717 0.9579 1.1086
v  0.7030 0.9579 0.8742
v  0.9053 0.9579 0.6625
v  1.0459 0.9579 0.4056
v  1.1153 0.9579 0.1211
v  1.1086 0.9579 -0.1717
v  1.0264 0.9579 -0.4528
v  0.8742 0.9579 -0.7030
v  0.6625 0.9579 -0.9053
v  0.4056 0.9579 -1.0459
v  0.1211 0.9579 -1.1153
v  -0.1717 0.9579 -1.1086
v  -0.4528 0.9579 -1.0264
v  -0.7030 0.9579 -0.8742
v  -0.9053 0.9579 -0.6625
v  -1.0459 0.9579 -0.4056
v  -1.1153 0.9579 -0.1211
v  -1.1086 0.9579 0.1717
v  -1.0264 0.9579 0.4528
v  -0.8742 0.9579 0.7030
v  -0.6625 0.9579 0.9053
v  -0.4056 0.9579 1.0459
v  -0.1211 0.9579 1.1153
v  0.5218 1.1271 1.1828
v  0.1979 1.1271 1.2776
v  0.8102 1.1271 1.0075
v  1.0433 1.1271 0.7634
v  1.2054 1.1271 0.4674
v  1.2853 1.1271 0.1395
v  1.2776 1.1271 -0.1979
v  1.1828 1.1271 -0.5218
v  1.0075 1.1271 -0.8102
v  0.7634 1.1271 -1.0433
v  0.4674 1.1271 -1.2054
v  0.1395 1.1271 -1.2853
v  -0.1979 1.1271 -1.2776
v  -0.5218 1.1271 -1.1828
v  -0.8102 1.1271 -1.0075
v  -1.0433 1.1271 -0.7635
v  -1.2054 1.1271 -0.4674
v  -1.2853 1.1271 -0.1395
v  -1.2776 1.1271 0.1979
v  -1.1828 1.1271 0.5218
v  -1.0075 1.1271 0.8102
v  -0.7635 1.1271 1.0433
v  -0.4674 1.1271 1.2054
v  -0.1395 1.1271 1.2853
# 144 vertices

vn -0.0000 -1.0000 0.0000
vn 0.0000 -1.0000 -0.0000
vn -0.0000 -1.0000 -0.0000
vn 0.0000 -1.0000 0.0000
vn 0.1431 -0.3550 0.9238
vn 0.3773 -0.3550 0.8553
vn 0.3111 -0.6371 0.7052
vn 0.1180 -0.6371 0.7617
vn 0.5859 -0.3550 0.7285
vn 0.4830 -0.6371 0.6007
vn 0.7544 -0.3550 0.5521
vn 0.6221 -0.6371 0.4552
vn 0.8716 -0.3550 0.3380
vn 0.7187 -0.6371 0.2787
vn 0.9294 -0.3550 0.1009
vn 0.7663 -0.6371 0.0832
vn 0.9238 -0.3550 -0.1431
vn 0.7617 -0.6371 -0.1180
vn 0.8553 -0.3550 -0.3773
vn 0.7052 -0.6371 -0.3111
vn 0.7285 -0.3550 -0.5859
vn 0.6007 -0.6371 -0.4830
vn 0.5521 -0.3550 -0.7544
vn 0.4552 -0.6371 -0.6221
vn 0.3380 -0.3550 -0.8716
vn 0.2787 -0.6371 -0.7187
vn 0.1009 -0.3550 -0.9294
vn 0.0832 -0.6371 -0.7663
vn -0.1431 -0.3550 -0.9238
vn -0.1180 -0.6371 -0.7617
vn -0.3773 -0.3550 -0.8553
vn -0.3111 -0.6371 -0.7052
vn -0.5859 -0.3550 -0.7285
vn -0.4830 -0.6371 -0.6007
vn -0.7544 -0.3550 -0.5521
vn -0.6221 -0.6371 -0.4552
vn -0.8716 -0.3550 -0.3380
vn -0.7187 -0.6371 -0.2787
vn -0.9294 -0.3550 -0.1009
vn -0.7663 -0.6371 -0.0832
vn -0.9238 -0.3550 0.1431
vn -0.7617 -0.6371 0.1180
vn -0.8553 -0.3550 0.3773
vn -0.7052 -0.6371 0.3111
vn -0.7285 -0.3550 0.5859
vn -0.6007 -0.6371 0.4830
vn -0.5521 -0.3550 0.7544
vn -0.4552 -0.6371 0.6221
vn -0.3380 -0.3550 0.8716
vn -0.2787 -0.6371 0.7187
vn -0.1009 -0.3550 0.9294
vn -0.0832 -0.6371 0.7663
vn 0.2442 -0.7962 0.5536
vn 0.0926 -0.7962 0.5979
vn 0.3792 -0.7962 0.4715
vn 0.4883 -0.7962 0.3573
vn 0.5641 -0.7962 0.2187
vn 0.6015 -0.7962 0.0653
vn 0.5979 -0.7962 -0.0926
vn 0.5536 -0.7962 -0.2442
vn 0.4715 -0.7962 -0.3792
vn 0.3573 -0.7962 -0.4883
vn 0.2187 -0.7962 -0.5641
vn 0.0653 -0.7962 -0.6015
vn -0.0926 -0.7962 -0.5979
vn -0.2442 -0.7962 -0.5536
vn -0.3792 -0.7962 -0.4715
vn -0.4883 -0.7962 -0.3573
vn -0.5641 -0.7962 -0.2187
vn -0.6015 -0.7962 -0.0653
vn -0.5979 -0.7962 0.0926
vn -0.5536 -0.7962 0.2442
vn -0.4715 -0.7962 0.3792
vn -0.3573 -0.7962 0.4883
vn -0.2187 -0.7962 0.5641
vn -0.0653 -0.7962 0.6015
vn 0.2640 -0.7564 0.5985
vn 0.1001 -0.7564 0.6464
vn 0.4099 -0.7564 0.5098
vn 0.5279 -0.7564 0.3863
vn 0.6099 -0.7564 0.2365
vn 0.6503 -0.7564 0.0706
vn 0.6464 -0.7564 -0.1001
vn 0.5985 -0.7564 -0.2640
vn 0.5098 -0.7564 -0.4099
vn 0.3863 -0.7564 -0.5279
vn 0.2365 -0.7564 -0.6099
vn 0.0706 -0.7564 -0.6503
vn -0.1001 -0.7564 -0.6464
vn -0.2640 -0.7564 -0.5985
vn -0.4099 -0.7564 -0.5098
vn -0.5279 -0.7564 -0.3863
vn -0.6099 -0.7564 -0.2365
vn -0.6503 -0.7564 -0.0706
vn -0.6464 -0.7564 0.1001
vn -0.5985 -0.7564 0.2640
vn -0.5098 -0.7564 0.4099
vn -0.3863 -0.7564 0.5279
vn -0.2365 -0.7564 0.6099
vn -0.0706 -0.7564 0.6503
vn 0.2637 -0.7572 0.5976
vn 0.1000 -0.7572 0.6455
vn 0.4093 -0.7572 0.5090
vn 0.5271 -0.7572 0.3857
vn 0.6090 -0.7572 0.2362
vn 0.6494 -0.7572 0.0705
vn 0.6455 -0.7572 -0.1000
vn 0.5976 -0.7572 -0.2637
vn 0.5090 -0.7572 -0.4093
vn 0.3857 -0.7572 -0.5271
vn 0.2362 -0.7572 -0.6090
vn 0.0705 -0.7572 -0.6494
vn -0.1000 -0.7572 -0.6455
vn -0.2637 -0.7572 -0.5976
vn -0.4093 -0.7572 -0.5090
vn -0.5271 -0.7572 -0.3857
vn -0.6090 -0.7572 -0.2362
vn -0.6494 -0.7572 -0.0705
vn -0.6455 -0.7572 0.1000
vn -0.5976 -0.7572 0.2637
vn -0.5090 -0.7572 0.4093
vn -0.3857 -0.7572 0.5271
vn -0.2362 -0.7572 0.6090
vn -0.0705 -0.7572 0.6494
vn 0.2618 -0.7612 0.5933
vn 0.0993 -0.7612 0.6409
vn 0.4064 -0.7612 0.5054
vn 0.5233 -0.7612 0.3830
vn 0.6046 -0.7612 0.2345
vn 0.6447 -0.7612 0.0700
vn 0.6409 -0.7612 -0.0993
vn 0.5933 -0.7612 -0.2618
vn 0.5054 -0.7612 -0.4064
vn 0.3830 -0.7612 -0.5233
vn 0.2345 -0.7612 -0.6046
vn 0.0700 -0.7612 -0.6447
vn -0.0993 -0.7612 -0.6409
vn -0.2618 -0.7612 -0.5933
vn -0.4064 -0.7612 -0.5054
vn -0.5233 -0.7612 -0.3830
vn -0.6046 -0.7612 -0.2345
vn -0.6447 -0.7612 -0.0700
vn -0.6409 -0.7612 0.0993
vn -0.5933 -0.7612 0.2618
vn -0.5054 -0.7612 0.4064
vn -0.3830 -0.7612 0.5233
vn -0.2345 -0.7612 0.6046
vn -0.0700 -0.7612 0.6447
vn -0.0000 1.0000 -0.0000
vn 0.0000 1.0000 0.0000
vn -0.0000 1.0000 0.0000
vn 0.0000 1.0000 -0.0000
# 152 vertex normals

vt 0.6224 0.0075 0.0000
vt 0.6470 0.0027 0.0000
vt 0.6650 -0.0000 0.0000
vt 0.6774 0.0025 0.0000
vt 0.6832 0.0038 0.0000
vt 0.6921 0.0052 0.0000
vt 0.7076 0.0100 0.0000
vt 0.7289 0.0116 0.0000
vt 0.7537 0.0183 0.0000
vt 0.7796 0.0303 0.0000
vt 0.8043 0.0469 0.0000
vt 0.8256 0.0672 0.0000
vt 0.8421 0.0891 0.0000
vt 0.8527 0.1105 0.0000
vt 0.8570 0.1292 0.0000
vt 0.8583 0.1385 0.0000
vt 0.8548 0.1433 0.0000
vt 0.8106 0.1489 0.0000
vt 0.7492 0.1390 0.0000
vt 0.7019 0.1372 0.0000
vt 0.6392 0.1156 0.0000
vt 0.5762 0.0925 0.0000
vt 0.4961 0.0408 0.0000
vt 0.5927 0.0152 0.0000
vt 0.5882 0.1880 0.0000
vt 0.5342 0.1852 0.0000
vt 0.6517 0.1977 0.0000
vt 0.7173 0.2070 0.0000
vt 0.7821 0.2137 0.0000
vt 0.8437 0.2149 0.0000
vt 0.8965 0.2052 0.0000
vt 0.1594 0.0553 0.0000
vt 0.1723 0.0538 0.0000
vt 0.1124 0.1135 0.0000
vt 0.1088 0.0957 0.0000
vt 0.1861 0.0525 0.0000
vt 0.1300 0.1431 0.0000
vt 0.2013 0.0517 0.0000
vt 0.1505 0.1577 0.0000
vt 0.2178 0.0515 0.0000
vt 0.1711 0.1665 0.0000
vt 0.2354 0.0516 0.0000
vt 0.1914 0.1729 0.0000
vt 0.2539 0.0521 0.0000
vt 0.2115 0.1781 0.0000
vt 0.2730 0.0529 0.0000
vt 0.2316 0.1829 0.0000
vt 0.2925 0.0538 0.0000
vt 0.2517 0.1875 0.0000
vt 0.3122 0.0549 0.0000
vt 0.2721 0.1918 0.0000
vt 0.3321 0.0560 0.0000
vt 0.2929 0.1959 0.0000
vt 0.3521 0.0571 0.0000
vt 0.3143 0.1997 0.0000
vt 0.3720 0.0579 0.0000
vt 0.3368 0.2029 0.0000
vt 0.3919 0.0584 0.0000
vt 0.3609 0.2049 0.0000
vt 0.4119 0.0582 0.0000
vt 0.3875 0.2050 0.0000
vt 0.4322 0.0568 0.0000
vt 0.4176 0.2025 0.0000
vt 0.4528 0.0539 0.0000
vt 0.4517 0.1973 0.0000
vt 0.4741 0.0487 0.0000
vt 0.4902 0.1906 0.0000
vt 0.5826 0.2380 0.0000
vt 0.5274 0.2462 0.0000
vt 0.6449 0.2367 0.0000
vt 0.7128 0.2408 0.0000
vt 0.7834 0.2473 0.0000
vt 0.8541 0.2526 0.0000
vt 0.9230 0.2526 0.0000
vt 0.0951 0.1121 0.0000
vt 0.0729 0.1693 0.0000
vt 0.0631 0.1535 0.0000
vt 0.1016 0.1869 0.0000
vt 0.1258 0.2041 0.0000
vt 0.1483 0.2166 0.0000
vt 0.1695 0.2261 0.0000
vt 0.1902 0.2339 0.0000
vt 0.2104 0.2408 0.0000
vt 0.2306 0.2471 0.0000
vt 0.2509 0.2532 0.0000
vt 0.2715 0.2589 0.0000
vt 0.2928 0.2642 0.0000
vt 0.3151 0.2691 0.0000
vt 0.3393 0.2728 0.0000
vt 0.3663 0.2748 0.0000
vt 0.3977 0.2738 0.0000
vt 0.4351 0.2684 0.0000
vt 0.4786 0.2585 0.0000
vt 0.5719 0.2942 0.0000
vt 0.5118 0.3148 0.0000
vt 0.6362 0.2820 0.0000
vt 0.7068 0.2786 0.0000
vt 0.7826 0.2840 0.0000
vt 0.8621 0.2944 0.0000
vt 0.9426 0.3029 0.0000
vt 0.0518 0.1695 0.0000
vt 0.0443 0.2320 0.0000
vt 0.0279 0.2174 0.0000
vt 0.0759 0.2453 0.0000
vt 0.1020 0.2601 0.0000
vt 0.1251 0.2738 0.0000
vt 0.1466 0.2854 0.0000
vt 0.1671 0.2954 0.0000
vt 0.1872 0.3043 0.0000
vt 0.2071 0.3125 0.0000
vt 0.2270 0.3203 0.0000
vt 0.2471 0.3278 0.0000
vt 0.2678 0.3350 0.0000
vt 0.2893 0.3419 0.0000
vt 0.3123 0.3481 0.0000
vt 0.3378 0.3531 0.0000
vt 0.3680 0.3557 0.0000
vt 0.4064 0.3525 0.0000
vt 0.4559 0.3394 0.0000
vt 0.5571 0.3509 0.0000
vt 0.4891 0.3887 0.0000
vt 0.6241 0.3285 0.0000
vt 0.6965 0.3147 0.0000
vt 0.7753 0.3167 0.0000
vt 0.8623 0.3325 0.0000
vt 0.9544 0.3537 0.0000
vt 0.0197 0.2351 0.0000
vt 0.0293 0.2983 0.0000
vt 0.0062 0.2870 0.0000
vt 0.0582 0.3086 0.0000
vt 0.0823 0.3216 0.0000
vt 0.1040 0.3350 0.0000
vt 0.1244 0.3475 0.0000
vt 0.1442 0.3589 0.0000
vt 0.1637 0.3695 0.0000
vt 0.1830 0.3794 0.0000
vt 0.2023 0.3889 0.0000
vt 0.2217 0.3982 0.0000
vt 0.2415 0.4072 0.0000
vt 0.2617 0.4161 0.0000
vt 0.2829 0.4248 0.0000
vt 0.3056 0.4332 0.0000
vt 0.3311 0.4412 0.0000
vt 0.3637 0.4468 0.0000
vt 0.4175 0.4376 0.0000
vt 0.5383 0.3979 0.0000
vt 0.4692 0.4688 0.0000
vt 0.6151 0.3804 0.0000
vt 0.6807 0.3443 0.0000
vt 0.7620 0.3447 0.0000
vt 0.8471 0.3533 0.0000
vt 0.9580 0.4022 0.0000
vt 0.0024 0.3057 0.0000
vt 0.0299 0.3651 0.0000
vt 0.0000 0.3590 0.0000
vt 0.0493 0.3740 0.0000
vt 0.0674 0.3860 0.0000
vt 0.0855 0.3988 0.0000
vt 0.1037 0.4114 0.0000
vt 0.1220 0.4235 0.0000
vt 0.1404 0.4352 0.0000
vt 0.1589 0.4466 0.0000
vt 0.1774 0.4577 0.0000
vt 0.1960 0.4686 0.0000
vt 0.2148 0.4794 0.0000
vt 0.2338 0.4902 0.0000
vt 0.2531 0.5011 0.0000
vt 0.2726 0.5125 0.0000
vt 0.2925 0.5250 0.0000
vt 0.3133 0.5412 0.0000
vt 0.3383 0.5734 0.0000
vt 0.0021 0.4300 0.0000
vt 0.0372 0.3036 0.0000
vt 0.1038 0.1905 0.0000
vt 0.1974 0.0985 0.0000
vt 0.3117 0.0339 0.0000
vt 0.4387 0.0010 0.0000
vt 0.5700 0.0021 0.0000
vt 0.6964 0.0372 0.0000
vt 0.8095 0.1038 0.0000
vt 0.9015 0.1974 0.0000
vt 0.9661 0.3117 0.0000
vt 0.9990 0.4387 0.0000
vt 0.9979 0.5700 0.0000
vt 0.9628 0.6964 0.0000
vt 0.8962 0.8095 0.0000
vt 0.8026 0.9015 0.0000
vt 0.6883 0.9661 0.0000
vt 0.5613 0.9990 0.0000
vt 0.4300 0.9979 0.0000
vt 0.3036 0.9628 0.0000
vt 0.1905 0.8962 0.0000
vt 0.0985 0.8026 0.0000
vt 0.0339 0.6883 0.0000
vt 0.0010 0.5613 0.0000
# 195 texture coords

o Bumper
g Bumper
usemtl red
s 1
f 1/1/1 2/2/2 3/3/3 
f 3/3/3 4/4/1 5/5/2 
f 5/5/2 6/6/2 7/7/2 
f 3/3/3 5/5/2 7/7/2 
f 7/7/2 8/8/4 9/9/4 
f 9/9/4 10/10/2 11/11/1 
f 7/7/2 9/9/4 11/11/1 
f 11/11/1 12/12/2 13/13/2 
f 13/13/2 14/14/2 15/15/2 
f 11/11/1 13/13/2 15/15/2 
f 7/7/2 11/11/1 15/15/2 
f 15/15/2 16/16/2 17/17/2 
f 17/17/2 18/18/2 19/19/4 
f 15/15/2 17/17/2 19/19/4 
f 19/19/4 20/20/2 21/21/4 
f 21/21/4 22/22/4 23/23/4 
f 19/19/4 21/21/4 23/23/4 
f 15/15/2 19/19/4 23/23/4 
f 7/7/2 15/15/2 23/23/4 
f 3/3/3 7/7/2 23/23/4 
f 1/1/1 3/3/3 23/23/4 
f 24/24/1 1/1/1 23/23/4 
s 8
f 23/23/5 22/22/6 25/25/7 
f 25/25/7 26/26/8 23/23/5 
f 22/22/6 21/21/9 27/27/10 
f 27/27/10 25/25/7 22/22/6 
f 21/21/9 20/20/11 28/28/12 
f 28/28/12 27/27/10 21/21/9 
f 20/20/11 19/19/13 29/29/14 
f 29/29/14 28/28/12 20/20/11 
f 19/19/13 18/18/15 30/30/16 
f 30/30/16 29/29/14 19/19/13 
f 18/18/15 17/17/17 31/31/18 
f 31/31/18 30/30/16 18/18/15 
f 17/32/17 16/33/19 32/34/20 
f 32/34/20 31/35/18 17/32/17 
f 16/33/19 15/36/21 33/37/22 
f 33/37/22 32/34/20 16/33/19 
f 15/36/21 14/38/23 34/39/24 
f 34/39/24 33/37/22 15/36/21 
f 14/38/23 13/40/25 35/41/26 
f 35/41/26 34/39/24 14/38/23 
f 13/40/25 12/42/27 36/43/28 
f 36/43/28 35/41/26 13/40/25 
f 12/42/27 11/44/29 37/45/30 
f 37/45/30 36/43/28 12/42/27 
f 11/44/29 10/46/31 38/47/32 
f 38/47/32 37/45/30 11/44/29 
f 10/46/31 9/48/33 39/49/34 
f 39/49/34 38/47/32 10/46/31 
f 9/48/33 8/50/35 40/51/36 
f 40/51/36 39/49/34 9/48/33 
f 8/50/35 7/52/37 41/53/38 
f 41/53/38 40/51/36 8/50/35 
f 7/52/37 6/54/39 42/55/40 
f 42/55/40 41/53/38 7/52/37 
f 6/54/39 5/56/41 43/57/42 
f 43/57/42 42/55/40 6/54/39 
f 5/56/41 4/58/43 44/59/44 
f 44/59/44 43/57/42 5/56/41 
f 4/58/43 3/60/45 45/61/46 
f 45/61/46 44/59/44 4/58/43 
f 3/60/45 2/62/47 46/63/48 
f 46/63/48 45/61/46 3/60/45 
f 2/62/47 1/64/49 47/65/50 
f 47/65/50 46/63/48 2/62/47 
f 1/64/49 24/66/51 48/67/52 
f 48/67/52 47/65/50 1/64/49 
f 24/66/51 23/23/5 26/26/8 
f 26/26/8 48/67/52 24/66/51 
f 26/26/8 25/25/7 49/68/53 
f 49/68/53 50/69/54 26/26/8 
f 25/25/7 27/27/10 51/70/55 
f 51/70/55 49/68/53 25/25/7 
f 27/27/10 28/28/12 52/71/56 
f 52/71/56 51/70/55 27/27/10 
f 28/28/12 29/29/14 53/72/57 
f 53/72/57 52/71/56 28/28/12 
f 29/29/14 30/30/16 54/73/58 
f 54/73/58 53/72/57 29/29/14 
f 30/30/16 31/31/18 55/74/59 
f 55/74/59 54/73/58 30/30/16 
f 31/75/18 32/34/20 56/76/60 
f 56/76/60 55/77/59 31/75/18 
f 32/34/20 33/37/22 57/78/61 
f 57/78/61 56/76/60 32/34/20 
f 33/37/22 34/39/24 58/79/62 
f 58/79/62 57/78/61 33/37/22 
f 34/39/24 35/41/26 59/80/63 
f 59/80/63 58/79/62 34/39/24 
f 35/41/26 36/43/28 60/81/64 
f 60/81/64 59/80/63 35/41/26 
f 36/43/28 37/45/30 61/82/65 
f 61/82/65 60/81/64 36/43/28 
f 37/45/30 38/47/32 62/83/66 
f 62/83/66 61/82/65 37/45/30 
f 38/47/32 39/49/34 63/84/67 
f 63/84/67 62/83/66 38/47/32 
f 39/49/34 40/51/36 64/85/68 
f 64/85/68 63/84/67 39/49/34 
f 40/51/36 41/53/38 65/86/69 
f 65/86/69 64/85/68 40/51/36 
f 41/53/38 42/55/40 66/87/70 
f 66/87/70 65/86/69 41/53/38 
f 42/55/40 43/57/42 67/88/71 
f 67/88/71 66/87/70 42/55/40 
f 43/57/42 44/59/44 68/89/72 
f 68/89/72 67/88/71 43/57/42 
f 44/59/44 45/61/46 69/90/73 
f 69/90/73 68/89/72 44/59/44 
f 45/61/46 46/63/48 70/91/74 
f 70/91/74 69/90/73 45/61/46 
f 46/63/48 47/65/50 71/92/75 
f 71/92/75 70/91/74 46/63/48 
f 47/65/50 48/67/52 72/93/76 
f 72/93/76 71/92/75 47/65/50 
f 48/67/52 26/26/8 50/69/54 
f 50/69/54 72/93/76 48/67/52 
f 50/69/54 49/68/53 73/94/77 
f 73/94/77 74/95/78 50/69/54 
f 49/68/53 51/70/55 75/96/79 
f 75/96/79 73/94/77 49/68/53 
f 51/70/55 52/71/56 76/97/80 
f 76/97/80 75/96/79 51/70/55 
f 52/71/56 53/72/57 77/98/81 
f 77/98/81 76/97/80 52/71/56 
f 53/72/57 54/73/58 78/99/82 
f 78/99/82 77/98/81 53/72/57 
f 54/73/58 55/74/59 79/100/83 
f 79/100/83 78/99/82 54/73/58 
f 55/101/59 56/76/60 80/102/84 
f 80/102/84 79/103/83 55/101/59 
f 56/76/60 57/78/61 81/104/85 
f 81/104/85 80/102/84 56/76/60 
f 57/78/61 58/79/62 82/105/86 
f 82/105/86 81/104/85 57/78/61 
f 58/79/62 59/80/63 83/106/87 
f 83/106/87 82/105/86 58/79/62 
f 59/80/63 60/81/64 84/107/88 
f 84/107/88 83/106/87 59/80/63 
f 60/81/64 61/82/65 85/108/89 
f 85/108/89 84/107/88 60/81/64 
f 61/82/65 62/83/66 86/109/90 
f 86/109/90 85/108/89 61/82/65 
f 62/83/66 63/84/67 87/110/91 
f 87/110/91 86/109/90 62/83/66 
f 63/84/67 64/85/68 88/111/92 
f 88/111/92 87/110/91 63/84/67 
f 64/85/68 65/86/69 89/112/93 
f 89/112/93 88/111/92 64/85/68 
f 65/86/69 66/87/70 90/113/94 
f 90/113/94 89/112/93 65/86/69 
f 66/87/70 67/88/71 91/114/95 
f 91/114/95 90/113/94 66/87/70 
f 67/88/71 68/89/72 92/115/96 
f 92/115/96 91/114/95 67/88/71 
f 68/89/72 69/90/73 93/116/97 
f 93/116/97 92/115/96 68/89/72 
f 69/90/73 70/91/74 94/117/98 
f 94/117/98 93/116/97 69/90/73 
f 70/91/74 71/92/75 95/118/99 
f 95/118/99 94/117/98 70/91/74 
f 71/92/75 72/93/76 96/119/100 
f 96/119/100 95/118/99 71/92/75 
f 72/93/76 50/69/54 74/95/78 
f 74/95/78 96/119/100 72/93/76 
f 74/95/78 73/94/77 97/120/101 
f 97/120/101 98/121/102 74/95/78 
f 73/94/77 75/96/79 99/122/103 
f 99/122/103 97/120/101 73/94/77 
f 75/96/79 76/97/80 100/123/104 
f 100/123/104 99/122/103 75/96/79 
f 76/97/80 77/98/81 101/124/105 
f 101/124/105 100/123/104 76/97/80 
f 77/98/81 78/99/82 102/125/106 
f 102/125/106 101/124/105 77/98/81 
f 78/99/82 79/100/83 103/126/107 
f 103/126/107 102/125/106 78/99/82 
f 79/127/83 80/102/84 104/128/108 
f 104/128/108 103/129/107 79/127/83 
f 80/102/84 81/104/85 105/130/109 
f 105/130/109 104/128/108 80/102/84 
f 81/104/85 82/105/86 106/131/110 
f 106/131/110 105/130/109 81/104/85 
f 82/105/86 83/106/87 107/132/111 
f 107/132/111 106/131/110 82/105/86 
f 83/106/87 84/107/88 108/133/112 
f 108/133/112 107/132/111 83/106/87 
f 84/107/88 85/108/89 109/134/113 
f 109/134/113 108/133/112 84/107/88 
f 85/108/89 86/109/90 110/135/114 
f 110/135/114 109/134/113 85/108/89 
f 86/109/90 87/110/91 111/136/115 
f 111/136/115 110/135/114 86/109/90 
f 87/110/91 88/111/92 112/137/116 
f 112/137/116 111/136/115 87/110/91 
f 88/111/92 89/112/93 113/138/117 
f 113/138/117 112/137/116 88/111/92 
f 89/112/93 90/113/94 114/139/118 
f 114/139/118 113/138/117 89/112/93 
f 90/113/94 91/114/95 115/140/119 
f 115/140/119 114/139/118 90/113/94 
f 91/114/95 92/115/96 116/141/120 
f 116/141/120 115/140/119 91/114/95 
f 92/115/96 93/116/97 117/142/121 
f 117/142/121 116/141/120 92/115/96 
f 93/116/97 94/117/98 118/143/122 
f 118/143/122 117/142/121 93/116/97 
f 94/117/98 95/118/99 119/144/123 
f 119/144/123 118/143/122 94/117/98 
f 95/118/99 96/119/100 120/145/124 
f 120/145/124 119/144/123 95/118/99 
f 96/119/100 74/95/78 98/121/102 
f 98/121/102 120/145/124 96/119/100 
f 98/121/102 97/120/101 121/146/125 
f 121/146/125 122/147/126 98/121/102 
f 97/120/101 99/122/103 123/148/127 
f 123/148/127 121/146/125 97/120/101 
f 99/122/103 100/123/104 124/149/128 
f 124/149/128 123/148/127 99/122/103 
f 100/123/104 101/124/105 125/150/129 
f 125/150/129 124/149/128 100/123/104 
f 101/124/105 102/125/106 126/151/130 
f 126/151/130 125/150/129 101/124/105 
f 102/125/106 103/126/107 127/152/131 
f 127/152/131 126/151/130 102/125/106 
f 103/153/107 104/128/108 128/154/132 
f 128/154/132 127/155/131 103/153/107 
f 104/128/108 105/130/109 129/156/133 
f 129/156/133 128/154/132 104/128/108 
f 105/130/109 106/131/110 130/157/134 
f 130/157/134 129/156/133 105/130/109 
f 106/131/110 107/132/111 131/158/135 
f 131/158/135 130/157/134 106/131/110 
f 107/132/111 108/133/112 132/159/136 
f 132/159/136 131/158/135 107/132/111 
f 108/133/112 109/134/113 133/160/137 
f 133/160/137 132/159/136 108/133/112 
f 109/134/113 110/135/114 134/161/138 
f 134/161/138 133/160/137 109/134/113 
f 110/135/114 111/136/115 135/162/139 
f 135/162/139 134/161/138 110/135/114 
f 111/136/115 112/137/116 136/163/140 
f 136/163/140 135/162/139 111/136/115 
f 112/137/116 113/138/117 137/164/141 
f 137/164/141 136/163/140 112/137/116 
f 113/138/117 114/139/118 138/165/142 
f 138/165/142 137/164/141 113/138/117 
f 114/139/118 115/140/119 139/166/143 
f 139/166/143 138/165/142 114/139/118 
f 115/140/119 116/141/120 140/167/144 
f 140/167/144 139/166/143 115/140/119 
f 116/141/120 117/142/121 141/168/145 
f 141/168/145 140/167/144 116/141/120 
f 117/142/121 118/143/122 142/169/146 
f 142/169/146 141/168/145 117/142/121 
f 118/143/122 119/144/123 143/170/147 
f 143/170/147 142/169/146 118/143/122 
f 119/144/123 120/145/124 144/171/148 
f 144/171/148 143/170/147 119/144/123 
f 120/145/124 98/121/102 122/147/126 
f 122/147/126 144/171/148 120/145/124 
usemtl pokeball
s 1
f 122/172/149 121/173/150 123/174/150 
f 123/174/150 124/175/150 125/176/150 
f 125/176/150 126/177/151 127/178/151 
f 123/174/150 125/176/150 127/178/151 
f 127/178/151 128/179/151 129/180/152 
f 129/180/152 130/181/152 131/182/152 
f 127/178/151 129/180/152 131/182/152 
f 131/182/152 132/183/152 133/184/149 
f 133/184/149 134/185/149 135/186/149 
f 131/182/152 133/184/149 135/186/149 
f 127/178/151 131/182/152 135/186/149 
f 135/186/149 136/187/149 137/188/149 
f 137/188/149 138/189/152 139/190/151 
f 135/186/149 137/188/149 139/190/151 
f 139/190/151 140/191/152 141/192/152 
f 141/192/152 142/193/152 143/194/152 
f 139/190/151 141/192/152 143/194/152 
f 135/186/149 139/190/151 143/194/152 
f 127/178/151 135/186/149 143/194/152 
f 123/174/150 127/178/151 143/194/152 
f 122/172/149 123/174/150 143/194/152 
f 144/195/149 122/172/149 143/194/152 
# 284 faces

